<svg width="39" height="47" viewBox="0 0 39 47" fill="none" xmlns="http://www.w3.org/2000/svg">
<path d="M37.25 27.25V45.25H1.25V27.25" stroke="#474747" stroke-width="2.5" stroke-linecap="round" stroke-linejoin="round"/>
<path d="M12.25 1.25H26.25" stroke="#474747" stroke-width="2.5" stroke-linecap="round" stroke-linejoin="round"/>
<path d="M19.25 27.25L27.75 18.75" stroke="#AD343E" stroke-width="2.5" stroke-linecap="round" stroke-linejoin="round"/>
<path d="M19.25 1.25V4.25" stroke="#474747" stroke-width="2.5" stroke-linecap="round" stroke-linejoin="round"/>
<path d="M19.25 45.25C29.1911 45.25 37.25 37.1911 37.25 27.25C37.25 17.3089 29.1911 9.25 19.25 9.25C9.30887 9.25 1.25 17.3089 1.25 27.25C1.25 37.1911 9.30887 45.25 19.25 45.25Z" stroke="#474747" stroke-width="2.5" stroke-linecap="round" stroke-linejoin="round"/>
<path d="M19.25 15.25V17.25" stroke="#474747" stroke-width="2.5" stroke-linecap="round" stroke-linejoin="round"/>
<path d="M31.25 27.25H29.25" stroke="#474747" stroke-width="2.5" stroke-linecap="round" stroke-linejoin="round"/>
<path d="M27.735 35.735L26.321 34.321" stroke="#474747" stroke-width="2.5" stroke-linecap="round" stroke-linejoin="round"/>
<path d="M19.25 39.25V37.25" stroke="#474747" stroke-width="2.5" stroke-linecap="round" stroke-linejoin="round"/>
<path d="M10.765 35.735L12.179 34.321" stroke="#474747" stroke-width="2.5" stroke-linecap="round" stroke-linejoin="round"/>
<path d="M7.25 27.25H9.25" stroke="#474747" stroke-width="2.5" stroke-linecap="round" stroke-linejoin="round"/>
<path d="M10.765 18.765L12.179 20.179" stroke="#474747" stroke-width="2.5" stroke-linecap="round" stroke-linejoin="round"/>
</svg>
